<svg width="384" height="99" viewBox="0 0 384 99" fill="none" xmlns="http://www.w3.org/2000/svg">
<g clip-path="url(#clip0_1001_3)">
<g clip-path="url(#clip1_1001_3)">
<g clip-path="url(#clip2_1001_3)">
<path d="M254.444 0H273.809L272.078 12.1887L272.034 12.4995L269.827 27.985L269.799 28.1831L269.771 28.381L269.743 28.5788L269.686 28.9737L269.263 31.937L268.779 35.3316L268.529 37.0818L268.299 38.6936L268.216 39.2806L268.102 40.0764L268.069 40.3105L268.038 40.5247L268.012 40.7091C267.981 40.8893 267.939 41.0641 267.892 41.2408C268.254 40.9398 268.598 40.6388 268.901 40.277C272.903 35.5887 279.791 33.6064 285.692 33.0992C286.738 33.019 287.778 32.9741 288.827 32.9759L289.026 32.9761C294.492 32.9911 299.563 34.5733 303.844 38.0134L304.118 38.2322C305.334 39.2194 306.489 40.3461 307.43 41.5995L307.542 41.7451C312.748 48.516 313.984 57.6849 312.927 65.963C311.813 74.106 308.317 81.7935 302.768 87.8609L302.504 88.1534C302.074 88.627 301.648 89.0897 301.156 89.5003C300.941 89.6826 300.738 89.8756 300.532 90.0687C299.879 90.664 299.174 91.19 298.465 91.716L298.301 91.838C296.908 92.8718 295.425 93.7744 293.892 94.585L293.666 94.705C287.208 98.1016 278.552 99.7215 271.444 97.533C266.922 96.0604 262.223 93.1634 259.913 88.847V88.6677H259.644L259.631 88.9273C259.582 89.8388 259.488 90.7395 259.373 91.6449L259.319 92.071L259.208 92.9535L259.066 94.0846L258.956 94.9598L258.904 95.3772L258.831 95.9569L258.789 96.2896C258.748 96.5573 258.748 96.5573 258.658 96.8262H240.906L241.332 93.4331L241.373 93.1385L241.507 92.1876L241.605 91.4894L241.817 89.9874L242.13 87.7663L242.653 84.0459L243.406 78.7005L243.506 77.9911L243.773 76.0904L244.178 73.2118L245.904 60.9217L245.93 60.737L246.566 56.1964L246.92 53.6746L246.945 53.4936L247.072 52.5881L247.3 50.9572L247.351 50.5947L247.656 48.4228L249.217 37.2822L249.244 37.0866L249.928 32.2114L250.856 25.5936L251.012 24.4833L252.567 13.393L252.612 13.0685L254.444 0ZM268.375 54.5691C268.265 54.6751 268.153 54.7788 268.04 54.8822C264.634 58.0968 262.939 63.227 262.771 67.8076C262.738 69.2507 262.758 70.6641 263.051 72.0817L263.096 72.3003C263.778 75.4543 265.746 78.3181 268.453 80.0835C270.317 81.1818 272.44 81.4266 274.566 81.4283L274.775 81.4284C278.197 81.4237 281.664 80.7781 284.747 79.2542L284.922 79.1702C288.694 77.3539 291.364 73.6388 292.754 69.778C293.197 68.4824 293.476 67.153 293.713 65.8061L293.752 65.5831C294.088 63.6112 294.074 61.2975 293.623 59.351L293.57 59.1221C292.847 56.0922 291.1 53.4599 288.433 51.8048C287.303 51.1366 286.113 50.7043 284.837 50.408L284.605 50.354C283.256 50.0589 281.926 49.9904 280.55 49.9934L280.295 49.9935C275.789 50.0055 271.64 51.4064 268.375 54.5692L268.375 54.5691ZM203.341 32.7854L203.659 32.786C205.213 32.7906 206.737 32.8248 208.272 33.0824L208.603 33.1364C214.392 34.1076 219.827 36.5219 224.333 40.2947L224.799 40.6774C225.492 41.2474 226.133 41.8693 226.769 42.5017L227.019 42.749C227.493 43.2248 227.94 43.7261 228.36 44.2506C228.497 44.4227 228.639 44.5915 228.785 44.7568C232.803 49.3262 235.212 55.4189 235.975 61.4129L235.999 61.5978C236.162 62.9108 236.187 64.2151 236.183 65.537L236.182 65.8549C236.178 67.4082 236.143 68.9328 235.886 70.468L235.832 70.7984C234.861 76.5876 232.446 82.023 228.673 86.5284L228.291 86.9949C227.721 87.6881 227.099 88.3287 226.466 88.9648L226.219 89.2146C225.743 89.6884 225.242 90.1359 224.718 90.5551C224.545 90.6927 224.377 90.8345 224.211 90.9803C219.642 94.9993 213.549 97.4083 207.555 98.1712L207.37 98.1949C206.057 98.3581 204.753 98.3829 203.431 98.3785L203.113 98.3779C201.56 98.3733 200.035 98.3391 198.5 98.0815L198.17 98.0275C192.38 97.0563 186.945 94.642 182.44 90.8692L181.973 90.4864C181.28 89.9164 180.639 89.2946 180.003 88.6622L179.753 88.4149C179.28 87.9391 178.832 87.4378 178.413 86.9133C178.275 86.7411 178.133 86.5723 177.988 86.4071C173.969 81.8375 171.56 75.7447 170.797 69.7507L170.773 69.5659C170.61 68.2529 170.585 66.9486 170.59 65.6267L170.59 65.3088C170.595 63.7555 170.629 62.2308 170.887 60.6957L170.941 60.3653C171.912 54.5761 174.326 49.1407 178.099 44.6353L178.482 44.1688C179.052 43.4756 179.674 42.8349 180.306 42.1988L180.553 41.9491C181.029 41.4753 181.53 41.0278 182.055 40.6086C182.227 40.471 182.396 40.3292 182.561 40.1833C187.131 36.1646 193.223 33.7556 199.217 32.9926L199.402 32.969C200.715 32.8057 202.019 32.781 203.341 32.7854ZM203.341 42.1373L203.325 42.3033C202.764 47.8839 200.629 53.1866 196.763 57.3054C196.54 57.5445 196.324 57.7884 196.108 58.0341C195.763 58.4173 195.398 58.7508 195.004 59.082L194.737 59.3188C193.381 60.5163 191.91 61.5021 190.342 62.3992L190.167 62.501C186.949 64.3605 183.18 65.3009 179.494 65.5371V65.6268L179.688 65.6443C183.328 65.9812 186.744 66.8614 189.983 68.5853L190.176 68.6864C191.217 69.2332 192.18 69.8532 193.121 70.5577L193.292 70.6857C193.959 71.1892 194.59 71.7225 195.2 72.2944C195.439 72.5176 195.683 72.7343 195.928 72.9503C196.242 73.2329 196.529 73.5223 196.801 73.8454C196.937 74.0075 197.075 74.1664 197.216 74.3245C200.836 78.4171 202.762 83.555 203.341 88.9367L203.521 88.847C203.564 88.6638 203.564 88.6638 203.581 88.4401L203.609 88.1789L203.638 87.8945C204.228 82.7459 206.453 77.6777 210.039 73.9116C210.213 73.7288 210.375 73.5422 210.536 73.3481C211.396 72.3607 212.425 71.5174 213.472 70.7369L213.623 70.6236C217.614 67.6398 222.404 65.9448 227.369 65.6267V65.537L227.045 65.5135C224.918 65.3438 222.851 64.9501 220.824 64.2819L220.601 64.2084C217.32 63.1085 214.353 61.3302 211.8 59.0035C211.607 58.8287 211.411 58.6579 211.214 58.488C210.634 57.981 210.114 57.4293 209.617 56.8406L209.496 56.6989C206.205 52.835 203.986 47.8677 203.577 42.7876C203.555 42.4228 203.555 42.4228 203.341 42.1373ZM356.734 32.9759L356.951 32.9761C361.323 32.9849 365.612 33.7545 369.56 35.6824L369.736 35.7672C371.182 36.4706 372.57 37.3959 373.774 38.4616L373.984 38.6427C375.102 39.6224 376.122 40.6698 377.001 41.8685L377.133 42.0456C377.833 42.9886 378.437 43.962 378.973 45.0064L379.086 45.2248C381.288 49.5405 382.135 54.5097 382.128 59.3229L382.128 59.5263C382.12 63.1548 381.556 66.7146 381.009 70.2925L380.966 70.5729L380.926 70.8333L380.892 71.0599C380.855 71.2819 380.811 71.5025 380.767 71.7231H336.209C336.618 74.7228 337.252 77.4459 339.257 79.792L339.431 80.0102C341.328 82.3004 344.444 83.2908 347.293 83.5991C351.444 83.9874 355.434 82.9691 358.801 80.5092L358.985 80.3767C359.722 79.845 360.419 79.291 361.079 78.666C361.27 78.486 361.464 78.314 361.665 78.1446C362.002 77.8522 362.318 77.5402 362.634 77.2256L362.785 77.076C363.061 76.7992 363.315 76.5168 363.553 76.2058C363.941 76.2499 364.18 76.5011 364.461 76.7494L364.777 77.0226L364.933 77.158C365.119 77.3178 365.31 77.4713 365.503 77.6235C366.116 78.1095 366.717 78.61 367.32 79.1078L368.484 80.061L368.977 80.4644L369.224 80.6661L372.922 83.6919L373.17 83.8947L373.649 84.2877L375.746 85.9781C375.6 86.3484 375.331 86.5978 375.054 86.8728L374.899 87.0283L374.573 87.3536L374.084 87.8434C373.47 88.4583 372.843 89.0257 372.16 89.5642L371.885 89.7981C365.906 94.9254 357.701 97.8957 349.903 98.3727L349.722 98.3839C348.304 98.4687 346.894 98.4548 345.477 98.3727L345.274 98.361C338.171 97.9411 330.871 95.632 325.6 90.6834C325.401 90.4984 325.199 90.3216 324.991 90.1469C320.356 86.0929 317.892 79.2125 317.448 73.236C316.87 64.4493 319.411 55.6147 326.222 46.6718C326.543 46.3063 326.874 45.9492 327.205 45.593L327.602 45.1564C328.073 44.6375 328.548 44.1434 329.077 43.6824C329.284 43.5006 329.486 43.314 329.687 43.1253C330.253 42.5962 330.848 42.1157 331.463 41.6442L332.002 41.2159C333.568 39.9617 335.26 38.8926 337.015 37.9235L337.231 37.8033C342.195 35.0572 347.944 33.4655 353.601 33.0823L353.937 33.0589C354.87 32.997 355.799 32.9746 356.734 32.9759ZM341.459 51.9559C339.799 53.7733 338.353 56.1762 338.002 58.6337H363.284C363.379 58.061 363.394 57.5206 363.395 56.9416L363.402 56.3963C363.423 53.7572 362.336 51.4067 360.505 49.545C358.482 47.5555 355.733 46.862 352.964 46.8729C348.543 46.9411 344.502 48.7498 341.459 51.9559ZM35.5765 32.9759L35.7941 32.9761C43.2367 32.9911 51.0987 34.6159 56.5219 40.0082L56.7096 40.1945C57.3674 40.8545 57.3674 40.8545 57.5642 41.1512C57.4531 41.4846 57.3243 41.5593 57.0487 41.7733C56.6542 42.0881 56.2729 42.419 55.9056 42.7651C55.4808 43.1631 55.043 43.5353 54.5888 43.8998C54.3009 44.1397 54.0273 44.3917 53.754 44.6478C53.3291 45.0457 52.8914 45.418 52.4372 45.7825C52.1493 46.0224 51.8757 46.2744 51.6024 46.5306C51.1775 46.9284 50.7398 47.3008 50.2856 47.6652C49.9977 47.9051 49.7241 48.1572 49.4508 48.4133C49.0259 48.8112 48.5882 49.1835 48.134 49.548C47.8461 49.7879 47.5725 50.0399 47.2991 50.296C46.8751 50.6932 46.4386 51.0653 45.9845 51.4283C45.6314 51.7234 45.2982 52.0387 44.9683 52.3595C44.7004 52.6143 44.4716 52.7866 44.1164 52.896L43.9518 52.6757C41.876 49.9206 39.2672 48.3513 35.8335 47.8643C33.101 47.5281 30.0957 47.8539 27.7987 49.5035C26.8588 50.2985 26.2497 51.4936 26.0956 52.7165C26.0198 53.694 26.1081 54.4632 26.7289 55.2437C28.724 57.3133 32.6507 57.8142 35.3483 58.4435C49.6628 61.7845 49.6628 61.7845 53.0259 67.1696C53.7281 68.3415 54.3217 69.5557 54.6785 70.8771L54.7315 71.0722C55.0342 72.2765 55.0876 73.4812 55.0819 74.7153L55.0814 74.9408C55.0594 80.9177 52.9681 86.0294 48.7581 90.2282C48.311 90.6669 47.8387 91.0633 47.3436 91.447L46.9969 91.7209C40.8747 96.5194 32.9229 98.0817 25.3056 98.4064L25.05 98.4173C23.6605 98.4682 22.2727 98.447 20.8846 98.3728L20.6645 98.3611C13.4501 97.9683 6.20977 96.2555 0.92539 91.0492L0.711476 90.84L0.512175 90.6405L0.334391 90.4635C0.170683 90.2632 0.0899051 90.0766 0.00634766 89.8332L0.809647 89.025L1.08193 88.7508C1.54884 88.2801 2.01782 87.8186 2.52204 87.3874C2.86487 87.0835 3.18189 86.7529 3.50285 86.4264C4.25792 85.6584 4.25792 85.6584 4.66557 85.3085C5.09259 84.9415 5.48393 84.5412 5.87868 84.1402C6.32865 83.683 6.7806 83.239 7.26742 82.8211C7.61196 82.5148 7.9314 82.1826 8.25451 81.854C8.68897 81.4121 9.12684 80.9853 9.5969 80.5814C9.94179 80.2743 10.2619 79.9418 10.5855 79.6127C11.0228 79.1679 11.4635 78.738 11.9367 78.3315C12.2887 78.0194 12.6111 77.6766 12.9378 77.3385L13.0979 77.1755L13.2405 77.0283C13.3648 76.9231 13.3648 76.9231 13.5441 76.9231C13.6839 77.1079 13.8184 77.2966 13.9475 77.489C14.3099 78.0121 14.6946 78.4804 15.1309 78.9445C15.311 79.1365 15.4816 79.3328 15.651 79.5342C16.7645 80.8047 18.1857 81.8118 19.7302 82.4816L19.8994 82.5564C23.1383 83.9619 26.9982 83.9194 30.4046 83.2549L30.6792 83.2014C32.1487 82.8976 33.8331 82.3902 34.7134 81.0762C35.2903 80.1055 35.5939 79.0614 35.3717 77.9352C35.0941 76.9249 34.4761 76.304 33.5832 75.7866L33.1167 75.5334L32.9045 75.4176C31.2426 74.5589 29.42 74.1124 27.6136 73.6733L26.8609 73.4876L22.4889 72.4592C19.6356 71.8213 16.8997 71.0323 14.2613 69.7507L14.0048 69.6264C12.5069 68.8914 11.2456 68.0391 10.0476 66.8818L9.79611 66.6476C7.35375 64.3124 6.24662 61.1898 6.16683 57.8608C6.11017 52.2287 7.93651 46.451 11.8407 42.3167L12.1265 41.9804C12.9096 41.0847 13.7689 40.2649 14.7097 39.5374L15.0529 39.2638C20.6892 34.8115 28.5027 32.9658 35.5766 32.9758L35.5765 32.9759ZM79.619 16.1377H98.8946C98.7916 17.3735 98.7916 17.3735 98.7063 17.9758L98.6774 18.1849L98.5822 18.8661L98.5137 19.3595L98.3281 20.6903L98.1336 22.0862L97.8071 24.428L97.3883 27.4326L97.0279 30.0198L96.9507 30.5743L96.7304 32.1538L96.6637 32.632L96.5725 33.2849L96.546 33.4756C96.4972 33.8238 96.442 34.1697 96.3841 34.5168H113.239C113.138 35.7271 113.138 35.7271 113.064 36.2499L113.04 36.4249L112.96 36.9916L112.902 37.4033L112.745 38.5112L112.581 39.6743L112.305 41.6247L111.986 43.8782L111.647 46.2827L111.549 46.974L111.395 48.0595L111.339 48.4576L111.262 49.0011L111.219 49.3081C111.182 49.5488 111.135 49.7881 111.087 50.027H94.1427L94.053 51.1028L93.9351 51.9787L93.9 52.225L93.7838 53.0312L93.7002 53.6139L93.5205 54.8647L93.2356 56.8513L92.8354 59.6449L92.8097 59.8235L92.4253 62.4992L91.9776 65.6218L91.7411 67.2688C90.4211 73.7122 90.4211 73.7122 92.0018 79.7606L92.1706 79.9713L92.3814 80.2406C93.6093 81.6297 95.4696 81.9305 97.2248 82.095L97.8188 82.123L98.1756 82.1373C100.887 82.2072 103.756 82.0274 106.157 80.6885L106.695 80.4196C106.638 81.2996 106.536 82.1702 106.416 83.0436L106.359 83.4712L106.203 84.6214L106.073 85.584L105.765 87.8538L105.449 90.1934L105.176 92.2069L105.014 93.4075L104.861 94.5343L104.805 94.9475L104.728 95.5116L104.685 95.8304C104.635 96.0957 104.573 96.3158 104.453 96.5574C104.252 96.6656 104.252 96.6656 103.997 96.7391L103.709 96.8244L103.394 96.9103L103.068 97.0027C99.3684 98.0238 95.5479 98.363 91.7223 98.44L91.5024 98.4459C85.797 98.5957 78.9636 97.7493 74.6078 93.7299C71.7594 91.0197 70.4874 87.4346 70.3847 83.5574C70.3532 81.0633 70.7186 78.6192 71.0752 76.1577L71.2841 74.6977L71.6862 71.8954L72.1473 68.6796L72.8766 63.5914L73.7393 57.5522L73.8781 56.5752L73.9313 56.2014L73.9574 56.018L74.273 53.7958L74.4908 52.2661L74.5678 51.7242L74.6703 51.0054L74.6997 50.7959C74.7383 50.5287 74.7817 50.2836 74.8674 50.0267H62.5848C62.6856 48.8164 62.6856 48.8164 62.7635 48.2735L62.7892 48.0922L62.8738 47.5038L62.9348 47.0766L63.0998 45.9271L63.2725 44.7221L63.5992 42.4446L64.0409 39.3639L64.7365 34.5168H77.1087L77.1984 33.1719L77.2971 32.3756L77.3259 32.1652L77.4212 31.4846L77.4897 30.9898L77.6752 29.659L77.8697 28.2627L78.1962 25.9224L78.5734 23.2158L78.9366 20.6078L79.091 19.4989L79.2729 18.1964L79.3396 17.7179L79.4308 17.0665L79.4573 16.874C79.4937 16.6172 79.5368 16.3847 79.6191 16.1378L79.619 16.1377ZM166.942 33.6202C166.882 34.5168 166.762 35.4032 166.638 36.2924L166.572 36.7677L166.394 38.049L166.207 39.393L165.893 41.6473L165.53 44.2528L165.144 47.031L165.033 47.8305L164.858 49.0855L164.794 49.546L164.706 50.1743L164.657 50.5294C164.618 50.7824 164.574 51.0316 164.521 51.2819L164.286 51.2192C162.858 50.8493 161.409 50.5641 159.954 50.3181L159.77 50.2867C158.979 50.1575 158.193 50.102 157.391 50.0982L157.125 50.0963L156.279 50.0939L155.986 50.0938C151.157 50.0986 146.525 51.1313 143.009 54.6444C142.029 55.6623 141.233 56.8519 140.583 58.1031L140.314 58.6073C138.39 62.2218 137.781 66.5332 137.206 70.5396L137.112 71.1883L136.122 78.281L135.859 80.1955L135.39 83.6068L135.362 83.8102L135.051 86.0748L134.937 86.9067L134.908 87.1143L134.438 90.5352L134.15 92.6327L133.931 94.227L133.841 94.8813L133.719 95.7701L133.683 96.0342L133.65 96.2731L133.622 96.4802C133.591 96.6469 133.591 96.6469 133.501 96.8262H114.225L114.548 94.1502L114.588 93.8617L114.721 92.9195L114.817 92.2315L115.026 90.7441L115.336 88.5361L115.856 84.8261L116.6 79.5214L116.865 77.6332L116.932 77.1572L117.406 73.7787L120.074 54.7259L120.517 51.5645L121.1 47.3937L121.231 46.457L122.234 39.2701L122.267 39.0278L122.564 36.8852L122.639 36.3384L122.727 35.6982L122.766 35.4207L122.798 35.1842C122.833 34.9605 122.877 34.7385 122.922 34.5165H142.197C142.144 35.2619 142.09 35.9851 141.982 36.7206L141.945 36.9809L141.824 37.8162L141.74 38.4018L141.52 39.9308L141.294 41.4959L140.853 44.558C141.138 44.2798 141.359 43.9988 141.581 43.6671C142.29 42.626 143.077 41.6541 143.901 40.703L144.089 40.4841C145.042 39.3992 146.068 38.3503 147.218 37.4754L147.534 37.2261C152.602 33.2701 160.708 31.5424 166.942 33.6202Z" fill="black"/>
</g>
</g>
</g>
<defs>
<clipPath id="clip0_1001_3">
<rect width="384" height="98.44" fill="white"/>
</clipPath>
<clipPath id="clip1_1001_3">
<rect width="384" height="98.44" fill="white"/>
</clipPath>
<clipPath id="clip2_1001_3">
<rect width="383.988" height="98.44" fill="white" transform="translate(0.00634766)"/>
</clipPath>
</defs>
</svg>
